{"accessors":[{"bufferView":0,"byteOffset":0,"componentType":5126,"count":204,"max":[11,1.5,7.5],"min":[-11,-1.5,-7.5],"normalized":false,"type":"VEC3"},{"bufferView":1,"byteOffset":0,"componentType":5126,"count":204,"max":[1,0.000031,0.000076,1],"min":[-1,-1,-1,-1],"normalized":false,"type":"VEC4"},{"bufferView":2,"byteOffset":0,"componentType":5126,"count":204,"max":[1,1,1],"min":[-1,-1,-1],"normalized":false,"type":"VEC3"},{"bufferView":3,"byteOffset":0,"componentType":5126,"count":204,"max":[1,1],"min":[0,0],"normalized":false,"type":"VEC2"},{"bufferView":4,"byteOffset":0,"componentType":5125,"count":204,"max":[203],"min":[0],"normalized":false,"type":"SCALAR"},{"bufferView":5,"byteOffset":0,"componentType":5126,"count":60,"max":[7,1.5,5],"min":[1,-1.5,-5],"normalized":false,"type":"VEC3"},{"bufferView":6,"byteOffset":0,"componentType":5126,"count":60,"max":[0,0,0.000076,1],"min":[-1,-1,-1,-1],"normalized":false,"type":"VEC4"},{"bufferView":7,"byteOffset":0,"componentType":5126,"count":60,"max":[1,1,1],"min":[-1,-1,-1],"normalized":false,"type":"VEC3"},{"bufferView":8,"byteOffset":0,"componentType":5126,"count":60,"max":[1,1],"min":[0,0],"normalized":false,"type":"VEC2"},{"bufferView":9,"byteOffset":0,"componentType":5125,"count":60,"max":[59],"min":[0],"normalized":false,"type":"SCALAR"},{"bufferView":10,"byteOffset":0,"componentType":5126,"count":120,"max":[13.5,1.5,10],"min":[-13.5,-1.5,-10],"normalized":false,"type":"VEC3"},{"bufferView":11,"byteOffset":0,"componentType":5126,"count":120,"max":[0,0,0.000076,1],"min":[-1,-1,-1,-1],"normalized":false,"type":"VEC4"},{"bufferView":12,"byteOffset":0,"componentType":5126,"count":120,"max":[1,1,1],"min":[-1,-1,-1],"normalized":false,"type":"VEC3"},{"bufferView":13,"byteOffset":0,"componentType":5126,"count":120,"max":[1,1],"min":[0,0],"normalized":false,"type":"VEC2"},{"bufferView":14,"byteOffset":0,"componentType":5125,"count":120,"max":[119],"min":[0],"normalized":false,"type":"SCALAR"},{"bufferView":15,"byteOffset":0,"componentType":5126,"count":60,"max":[4.5,1.5,-1.5],"min":[-4.5,-1.5,-15.5],"normalized":false,"type":"VEC3"},{"bufferView":16,"byteOffset":0,"componentType":5126,"count":60,"max":[0,0,0.000076,1],"min":[-1,-1,-1,-1],"normalized":false,"type":"VEC4"},{"bufferView":17,"byteOffset":0,"componentType":5126,"count":60,"max":[1,1,1],"min":[-1,-1,-1],"normalized":false,"type":"VEC3"},{"bufferView":18,"byteOffset":0,"componentType":5126,"count":60,"max":[1,1],"min":[0,0],"normalized":false,"type":"VEC2"},{"bufferView":19,"byteOffset":0,"componentType":5125,"count":60,"max":[59],"min":[0],"normalized":false,"type":"SCALAR"},{"bufferView":20,"byteOffset":0,"componentType":5126,"count":738,"max":[28,4.5,6],"min":[-36,-1.5,-32],"normalized":false,"type":"VEC3"},{"bufferView":21,"byteOffset":0,"componentType":5126,"count":738,"max":[1,0.000031,0.265028,1],"min":[-1,-1,-1,1],"normalized":false,"type":"VEC4"},{"bufferView":22,"byteOffset":0,"componentType":5126,"count":738,"max":[1,1,1],"min":[-1,-1,-1],"normalized":false,"type":"VEC3"},{"bufferView":23,"byteOffset":0,"componentType":5126,"count":738,"max":[1,1],"min":[0,0],"normalized":false,"type":"VEC2"},{"bufferView":24,"byteOffset":0,"componentType":5125,"count":738,"max":[737],"min":[0],"normalized":false,"type":"SCALAR"}],"asset":{"generator":"Godot Engine v4.2.1.stable.official@b09f793f564a6c95dc76acc654b390e68441bd01","version":"2.0"},"bufferViews":[{"buffer":0,"byteLength":2448,"byteOffset":0},{"buffer":0,"byteLength":3264,"byteOffset":2448},{"buffer":0,"byteLength":2448,"byteOffset":5712},{"buffer":0,"byteLength":1632,"byteOffset":8160},{"buffer":0,"byteLength":816,"byteOffset":9792},{"buffer":0,"byteLength":720,"byteOffset":10608},{"buffer":0,"byteLength":960,"byteOffset":11328},{"buffer":0,"byteLength":720,"byteOffset":12288},{"buffer":0,"byteLength":480,"byteOffset":13008},{"buffer":0,"byteLength":240,"byteOffset":13488},{"buffer":0,"byteLength":1440,"byteOffset":13728},{"buffer":0,"byteLength":1920,"byteOffset":15168},{"buffer":0,"byteLength":1440,"byteOffset":17088},{"buffer":0,"byteLength":960,"byteOffset":18528},{"buffer":0,"byteLength":480,"byteOffset":19488},{"buffer":0,"byteLength":720,"byteOffset":19968},{"buffer":0,"byteLength":960,"byteOffset":20688},{"buffer":0,"byteLength":720,"byteOffset":21648},{"buffer":0,"byteLength":480,"byteOffset":22368},{"buffer":0,"byteLength":240,"byteOffset":22848},{"buffer":0,"byteLength":8856,"byteOffset":23088},{"buffer":0,"byteLength":11808,"byteOffset":31944},{"buffer":0,"byteLength":8856,"byteOffset":43752},{"buffer":0,"byteLength":5904,"byteOffset":52608},{"buffer":0,"byteLength":2952,"byteOffset":58512}],"buffers":[{"byteLength":61464,"uri":"main_level0.bin"}],"extensions":{"KHR_lights_punctual":{"lights":[{"color":[1,1,1],"intensity":1,"range":340282346638528860000000000000000000000,"type":"directional"}]}},"extensionsUsed":["GODOT_single_root","KHR_lights_punctual"],"materials":[{"extensions":{},"pbrMetallicRoughness":{"baseColorFactor":[0.99999988079071,0.99999988079071,0.99999988079071,1],"metallicFactor":0,"roughnessFactor":1}},{"extensions":{},"pbrMetallicRoughness":{"baseColorFactor":[0.99999988079071,0.99999988079071,0.99999988079071,1],"metallicFactor":0,"roughnessFactor":1}},{"extensions":{},"pbrMetallicRoughness":{"baseColorFactor":[0.99999988079071,0.99999988079071,0.99999988079071,1],"metallicFactor":0,"roughnessFactor":1}},{"extensions":{},"pbrMetallicRoughness":{"baseColorFactor":[0.99999988079071,0.99999988079071,0.99999988079071,1],"metallicFactor":0,"roughnessFactor":1}},{"extensions":{},"pbrMetallicRoughness":{"baseColorFactor":[0.99999988079071,0.99999988079071,0.99999988079071,1],"metallicFactor":0,"roughnessFactor":1}}],"meshes":[{"extras":{"targetNames":[]},"primitives":[{"attributes":{"NORMAL":2,"POSITION":0,"TANGENT":1,"TEXCOORD_0":3},"indices":4,"material":0,"mode":4}]},{"extras":{"targetNames":[]},"primitives":[{"attributes":{"NORMAL":7,"POSITION":5,"TANGENT":6,"TEXCOORD_0":8},"indices":9,"material":1,"mode":4}]},{"extras":{"targetNames":[]},"primitives":[{"attributes":{"NORMAL":12,"POSITION":10,"TANGENT":11,"TEXCOORD_0":13},"indices":14,"material":2,"mode":4}]},{"extras":{"targetNames":[]},"primitives":[{"attributes":{"NORMAL":17,"POSITION":15,"TANGENT":16,"TEXCOORD_0":18},"indices":19,"material":3,"mode":4}]},{"extras":{"targetNames":[]},"primitives":[{"attributes":{"NORMAL":22,"POSITION":20,"TANGENT":21,"TEXCOORD_0":23},"indices":24,"material":4,"mode":4}]}],"nodes":[{"children":[1,2,3,6,8,10,12,23],"extensions":{},"name":"MainLevel"},{"extensions":{},"name":"WorldEnvironment"},{"extensions":{"KHR_lights_punctual":{"light":0}},"name":"DirectionalLight3D","rotation":[-0.12941072881222,0.836515307426453,0.482963681221008,0.22414530813694]},{"children":[4,5],"extensions":{},"mesh":0,"name":"Overhang2","translation":[-20,1.5,11.5]},{"extensions":{},"name":"Overhang22","translation":[1.5,0,2]},{"extensions":{},"name":"Corridor5","rotation":[0,-0.70710676908493,0,0.70710676908493],"translation":[-5.5,-0.25,-7.5]},{"children":[7],"extensions":{},"mesh":1,"name":"Overhang24","translation":[-25,1.5,-5]},{"extensions":{},"name":"Overhang3","translation":[-3,0,0]},{"children":[9],"extensions":{},"mesh":2,"name":"Overhang33","translation":[1.5,1.5,-9]},{"extensions":{},"name":"Overhang4"},{"children":[11],"extensions":{},"mesh":3,"name":"Overhang43","translation":[27.5,1.5,-0.5]},{"extensions":{},"name":"Overhang5","translation":[0,0,7]},{"children":[13],"extensions":{},"mesh":4,"name":"Room2","translation":[4,1.5,13]},{"children":[14,15,16,17,18,19,20,21,22],"extensions":{},"name":"CSGCombiner3D"},{"extensions":{},"name":"Room22","translation":[-24,1.5,-1.5]},{"extensions":{},"name":"Room3","translation":[-29,1.5,-18]},{"extensions":{},"name":"Room4","translation":[-2.5,1.5,-22]},{"extensions":{},"name":"Room5","translation":[23.5,1.5,-13.5]},{"extensions":{},"name":"Corridor","translation":[-9.5,-0.25,0.5]},{"extensions":{},"name":"Corridor2","rotation":[0,-0.70710676908493,0,0.70710676908493],"translation":[-29.5,-0.25,-9]},{"extensions":{},"name":"Corridor3","translation":[-19.5,2.75,-17.5]},{"extensions":{},"name":"Corridor52","translation":[15,2.75,-23.5]},{"extensions":{},"name":"Corridor4","rotation":[0,-0.70710676908493,0,0.70710676908493],"translation":[-11.5,2.75,-9.5]},{"extensions":{},"name":"Sprite3D","scale":[2.40000009536743,2.40000009536743,2.40000009536743],"translation":[0,0.100000001490116,0]}],"scene":0,"scenes":[{"nodes":[0]}]}